<?xml version="1.0" encoding="UTF-8" standalone="no"?>
<svg
   xmlns:dc="http://purl.org/dc/elements/1.1/"
   xmlns:cc="http://creativecommons.org/ns#"
   xmlns:rdf="http://www.w3.org/1999/02/22-rdf-syntax-ns#"
   xmlns:svg="http://www.w3.org/2000/svg"
   xmlns="http://www.w3.org/2000/svg"
   viewBox="0 0 466.66666 391.94666"
   height="391.94666"
   width="466.66666"
   xml:space="preserve"
   id="svg2"
   version="1.1"><metadata
     id="metadata8"><rdf:RDF><cc:Work
         rdf:about=""><dc:format>image/svg+xml</dc:format><dc:type
           rdf:resource="http://purl.org/dc/dcmitype/StillImage" /></cc:Work></rdf:RDF></metadata><defs
     id="defs6" /><g
     transform="matrix(1.3333333,0,0,-1.3333333,0,391.94667)"
     id="g10"><g
       transform="scale(0.1)"
       id="g12"><path
         id="path14"
         style="fill:#100f0d;fill-opacity:1;fill-rule:nonzero;stroke:none"
         d="m 3500,897.402 v 148.188 l -497.09,341.32 c -17.68,166.06 -48.18,279.89 -95.65,279.89 -34.92,0 -60.63,-61.53 -78.81,-160.09 l -316.86,217.57 c -17.3,177.67 -48.35,301.42 -97.86,301.42 -36.96,0 -63.61,-69.04 -81.94,-177.96 l -388.63,266.85 c -22.07,462.11 -80.5,825 -193.11,825 -112.64,0 -171.09,-362.89 -193.19,-825 l -388.64,-266.85 c -18.33,108.92 -44.97,177.96 -81.95,177.96 -49.51,0 -80.56,-123.75 -97.852,-301.43 L 671.563,1506.71 c -18.184,98.56 -43.895,160.09 -78.809,160.09 -47.488,0 -77.981,-113.83 -95.664,-279.89 L 0,1045.59 V 897.402 l 1549.43,451.048 c 7.15,-321.13 25.74,-626.067 50.89,-842.395 L 1085.74,152.742 V 4.55078 L 1658.31,171.23 C 1688.36,56.418 1720.98,0 1749.96,0 c 29.02,0 61.64,56.4375 91.67,171.262 L 2414.26,4.55078 V 152.742 l -514.65,353.363 c 25.18,216.336 43.78,521.255 50.95,842.345 L 3500,897.402" /></g></g></svg>