<?xml version="1.0" encoding="UTF-8" standalone="no"?>
<svg
   xmlns:dc="http://purl.org/dc/elements/1.1/"
   xmlns:cc="http://creativecommons.org/ns#"
   xmlns:rdf="http://www.w3.org/1999/02/22-rdf-syntax-ns#"
   xmlns:svg="http://www.w3.org/2000/svg"
   xmlns="http://www.w3.org/2000/svg"
   viewBox="0 0 4000 4000"
   height="4000"
   width="4000"
   xml:space="preserve"
   id="svg2"
   version="1.1"><metadata
     id="metadata8"><rdf:RDF><cc:Work
         rdf:about=""><dc:format>image/svg+xml</dc:format><dc:type
           rdf:resource="http://purl.org/dc/dcmitype/StillImage" /></cc:Work></rdf:RDF></metadata><defs
     id="defs6" /><g
     transform="matrix(1.3333333,0,0,-1.3333333,0,4000)"
     id="g10"><g
       transform="scale(0.1)"
       id="g12"><path
         id="path14"
         style="fill:#000000;fill-opacity:1;fill-rule:nonzero;stroke:none"
         d="M 11770.8,14091.1 H 8376.64 v -975.2 h 3394.16 v 975.2" /><path
         id="path16"
         style="fill:#000000;fill-opacity:1;fill-rule:nonzero;stroke:none"
         d="m 11975.5,13115.9 h 3394.1 v 975.2 h -3394.1 v -975.2" /><path
         id="path18"
         style="fill:#000000;fill-opacity:1;fill-rule:nonzero;stroke:none"
         d="M 11770.8,15278.6 H 8376.64 v -975.2 h 3394.16 v 975.2" /><path
         id="path20"
         style="fill:#000000;fill-opacity:1;fill-rule:nonzero;stroke:none"
         d="m 15369.6,15278.6 h -3394.1 v -975.2 h 3394.1 v 975.2" /><g
         transform="scale(1.01019)"
         id="g22"><path
           id="path24"
           style="fill:#000000;fill-opacity:1;fill-rule:nonzero;stroke:none"
           d="M 11652.1,16300 H 8292.14 v -965.4 h 3359.96 v 965.4" /></g><g
         transform="scale(1.01019)"
         id="g26"><path
           id="path28"
           style="fill:#000000;fill-opacity:1;fill-rule:nonzero;stroke:none"
           d="m 15214.6,16300 h -3359.9 v -965.4 h 3359.9 v 965.4" /></g><g
         transform="scale(1.32615)"
         id="g30"><path
           id="path32"
           style="fill:#000000;fill-opacity:1;fill-rule:nonzero;stroke:none"
           d="m 8365.22,14551.6 h -103.16 v -236.4 h 40.04 l 61.99,-180.4 H 8403 v -271 -63.9 h 58.13 121.79 58.21 v 63.9 83.5 h -58.21 v -83.5 h -121.79 v 271 h 36.88 l 61.98,180.4 h 40.05 v 236.4 h -103.16 v 450.3 h 3530.72 141 122.3 v -4376.3 h -468.1 v -735.36 h 1652.6 v 735.36 h -467.9 v 4376.3 h 263.2 V 16300 h -836.1 L 12157,15414.5 H 8195.48 v -412.6 h 169.74 v -450.3" /></g><g
         transform="scale(1.48127)"
         id="g34"><path
           id="path36"
           style="fill:#000000;fill-opacity:1;fill-rule:nonzero;stroke:none"
           d="M 16038.1,9512.85 H 12284.7 V 8854.5 H 16300 l -261.9,658.35" /></g><g
         transform="scale(1.68712)"
         id="g38"><path
           id="path40"
           style="fill:#000000;fill-opacity:1;fill-rule:nonzero;stroke:none"
           d="m 11201.6,6100.41 c -161.9,0 -293.2,131.29 -293.2,293.16 0,161.94 131.3,293.16 293.2,293.16 161.9,0 293.1,-131.22 293.1,-293.16 0,-161.87 -131.2,-293.16 -293.1,-293.16 z m -1954.28,0 c -161.94,0 -293.17,131.29 -293.17,293.16 0,161.94 131.23,293.16 293.17,293.16 161.87,0 293.1,-131.22 293.1,-293.16 0,-161.87 -131.23,-293.16 -293.1,-293.16 z m -1954.34,0 c -161.88,0 -293.17,131.29 -293.17,293.16 0,161.94 131.29,293.16 293.17,293.16 161.93,0 293.16,-131.22 293.16,-293.16 0,-161.87 -131.23,-293.16 -293.16,-293.16 z m -1954.3,0 c -161.9,0 -293.14,131.29 -293.14,293.16 0,161.94 131.24,293.16 293.14,293.16 161.91,0 293.15,-131.22 293.15,-293.16 0,-161.87 -131.24,-293.16 -293.15,-293.16 z m -2023.7,779.08 c -161.9,0 -293.14,131.29 -293.14,293.16 0,161.94 131.24,293.16 293.14,293.16 161.9,0 293.15,-131.22 293.15,-293.16 0,-161.87 -131.25,-293.16 -293.15,-293.16 z m 11938.52,1028.14 -919.3,-349.29 -9512.83,-17.25 -489.15,629.42 -2850.4,50.86 611.12,-2884.39 h -51.78 c -101.52,0 -183.81,-82.33 -183.81,-183.87 0,-101.47 82.29,-183.8 183.81,-183.8 H 14249.9 l 653.5,968.1 c 532.2,509.92 978.1,1252.49 1396.6,2069.27 l -1046.5,-99.05" /></g><g
         transform="scale(1.44834)"
         id="g42"><path
           id="path44"
           style="fill:#000000;fill-opacity:1;fill-rule:nonzero;stroke:none"
           d="m 13602.9,11230.5 v -221 H 13382 v 221 z m 837,0 v -221 h -221 v 221 z m 836.9,0 v -221 h -220.9 v 221 z m 0,-611.6 h -220.9 v 221 h 220.9 z m 0,-390.6 h -220.9 v 221 h 220.9 z m -1673.9,221 v -221 H 13382 v 221 z m 0,390.6 v -221 H 13382 v 221 z m 616,-611.6 v 221 h 221 v -221 z m 221,611.6 v -221 h -221 v 221 z m 1727.5,-781.1 h 132.6 v 169.5 h -185.4 l -68.7,221 h 151.1 v 169.6 h -203.8 l -68.7,221 h 153.5 v 169.6 h -206.2 l -173.1,556.7 h -2665.4 l -272.9,-1690.46 h 3463.9 l -56.9,183.06" /></g><g
         transform="scale(1.15733)"
         id="g46"><path
           id="path48"
           style="fill:#000000;fill-opacity:1;fill-rule:nonzero;stroke:none"
           d="m 5871.5,15005.3 v -2904.5 h 368.69 v 2904.5 c 246.38,78.1 424.96,308.5 424.96,580.8 h -568.73 l -40.57,713.9 -40.56,-713.9 h -568.73 c 0,-272.3 178.57,-502.7 424.94,-580.8" /></g></g></g></svg>